<svg width="476" height="470" viewBox="0 0 476 470" fill="none" xmlns="http://www.w3.org/2000/svg">
<path d="M31.9046 6.50012H112.303C126.333 6.50012 137.707 17.874 137.707 31.9043V112.303C137.707 126.333 126.333 137.707 112.303 137.707H31.9047C17.8743 137.707 6.50049 126.333 6.50049 112.303V31.9043C6.50049 17.874 17.8743 6.50012 31.9046 6.50012Z" fill="#B1B1B1" stroke="black" stroke-width="13"/>
<path d="M31.9042 169.211H112.303C126.333 169.211 137.707 180.585 137.707 194.615V275.014C137.707 289.044 126.333 300.418 112.303 300.418H31.9042C17.8738 300.418 6.5 289.044 6.5 275.014V194.615C6.5 180.585 17.8738 169.211 31.9042 169.211Z" fill="#B1B1B1" stroke="black" stroke-width="13"/>
<path d="M31.9042 331.472H112.303C126.333 331.472 137.707 342.846 137.707 356.876V437.275C137.707 451.305 126.333 462.679 112.303 462.679H31.9042C17.8738 462.679 6.5 451.305 6.5 437.275V356.876C6.5 342.846 17.8738 331.472 31.9042 331.472Z" fill="#B1B1B1" stroke="black" stroke-width="13"/>
<path d="M197.806 6.5H278.204C292.235 6.5 303.609 17.8738 303.609 31.9042V112.303C303.609 126.333 292.235 137.707 278.204 137.707H197.806C183.776 137.707 172.402 126.333 172.402 112.303V31.9042C172.402 17.8738 183.776 6.5 197.806 6.5Z" fill="#B1B1B1" stroke="black" stroke-width="13"/>
<path d="M363.697 6.5H444.096C458.126 6.5 469.5 17.8738 469.5 31.9042V112.303C469.5 126.333 458.126 137.707 444.096 137.707H363.697C349.667 137.707 338.293 126.333 338.293 112.303V31.9042C338.293 17.8738 349.667 6.5 363.697 6.5Z" fill="#B1B1B1" stroke="black" stroke-width="13"/>
<path d="M197.806 169.211H278.204C292.235 169.211 303.609 180.585 303.609 194.615V275.014C303.609 289.044 292.235 300.418 278.204 300.418H197.806C183.776 300.418 172.402 289.044 172.402 275.014V194.615C172.402 180.585 183.776 169.211 197.806 169.211Z" fill="#B1B1B1" stroke="black" stroke-width="13"/>
<path d="M197.806 331.472H278.204C292.235 331.472 303.609 342.846 303.609 356.876V437.275C303.609 451.305 292.235 462.679 278.204 462.679H197.806C183.776 462.679 172.402 451.305 172.402 437.275V356.876C172.402 342.846 183.776 331.472 197.806 331.472Z" fill="#B1B1B1" stroke="black" stroke-width="13"/>
<path d="M363.697 169.211H444.096C458.126 169.211 469.5 180.585 469.5 194.615V275.014C469.5 289.044 458.126 300.418 444.096 300.418H363.697C349.667 300.418 338.293 289.044 338.293 275.014V194.615C338.293 180.585 349.667 169.211 363.697 169.211Z" fill="#B1B1B1" stroke="black" stroke-width="13"/>
<path d="M363.697 331.472H444.096C458.126 331.472 469.5 342.846 469.5 356.876V437.275C469.5 451.305 458.126 462.679 444.096 462.679H363.697C349.667 462.679 338.293 451.305 338.293 437.275V356.876C338.293 342.846 349.667 331.472 363.697 331.472Z" fill="#B1B1B1" stroke="black" stroke-width="13"/>
</svg>
