<svg width="486" height="481" viewBox="0 0 486 481" fill="none" xmlns="http://www.w3.org/2000/svg">
<path d="M7.5 50C7.5 26.5279 26.5279 7.5 50 7.5H176C199.472 7.5 218.5 26.5279 218.5 50V176C218.5 199.472 199.472 218.5 176 218.5H50C26.5279 218.5 7.5 199.472 7.5 176V50Z" fill="#B1B1B1" stroke="black" stroke-width="15"/>
<path d="M7.5 305C7.5 281.528 26.5279 262.5 50 262.5H176C199.472 262.5 218.5 281.528 218.5 305V431C218.5 454.472 199.472 473.5 176 473.5H50C26.5279 473.5 7.5 454.472 7.5 431V305Z" fill="#B1B1B1" stroke="black" stroke-width="15"/>
<path d="M267.5 50C267.5 26.5279 286.528 7.5 310 7.5H436C459.472 7.5 478.5 26.5279 478.5 50V176C478.5 199.472 459.472 218.5 436 218.5H310C286.528 218.5 267.5 199.472 267.5 176V50Z" fill="#B1B1B1" stroke="black" stroke-width="15"/>
<path d="M267.5 305C267.5 281.528 286.528 262.5 310 262.5H436C459.472 262.5 478.5 281.528 478.5 305V431C478.5 454.472 459.472 473.5 436 473.5H310C286.528 473.5 267.5 454.472 267.5 431V305Z" fill="#B1B1B1" stroke="black" stroke-width="15"/>
</svg>
