<svg xmlns="http://www.w3.org/2000/svg" class="" width="20" height="20" version="1.1" id="Layer_1" x="0px" y="0px" viewBox="0 0 24 24" xml:space="preserve"><g><path d="M14.4,10.5H9.6c-0.6,0-1-0.4-1-1s0.4-1,1-1h4.9c0.6,0,1,0.4,1,1S15,10.5,14.4,10.5z"></path><path d="M16.2,7.2H7.8c-0.6,0-1-0.4-1-1s0.4-1,1-1h8.4c0.6,0,1,0.4,1,1S16.7,7.2,16.2,7.2z"></path><path d="M22.6,7.9C22.5,7.9,22.5,7.8,22.6,7.9c-0.1-0.2-0.1-0.3-0.2-0.3c0,0,0,0,0,0c-0.1-0.1-0.1-0.1-0.2-0.2c0,0,0,0,0,0
		c0,0-0.1,0-0.1,0c-0.1,0-0.2-0.1-0.3-0.1c0,0,0,0,0,0h-1.1V3c0-0.6-0.4-1-1-1H4.6c-0.6,0-1,0.4-1,1v4.2H2.4c0,0,0,0,0,0
		c-0.1,0-0.2,0-0.3,0.1c0,0-0.1,0-0.1,0c0,0,0,0,0,0c-0.1,0-0.2,0.1-0.2,0.2c0,0,0,0,0,0C1.6,7.6,1.5,7.7,1.5,7.8c0,0,0,0.1,0,0.1
		c0,0.1-0.1,0.2-0.1,0.3V21c0,0.6,0.4,1,1,1h19.2c0.6,0,1-0.4,1-1V8.2C22.6,8.1,22.6,8,22.6,7.9z M5.6,9.2v-2V4h12.9v3.2v2l-6.4,4.6
		L5.6,9.2L5.6,9.2z M20.6,20H3.4v-9.8l8.2,5.7c0.3,0.2,0.8,0.2,1.2,0l7.9-5.7V20z"></path></g></svg>
